<?xml version="1.0" encoding="UTF-8" standalone="no"?>
<!-- Created with Inkscape (http://www.inkscape.org/) -->

<svg
   width="1080mm"
   height="1080mm"
   viewBox="0 0 1080 1080"
   version="1.1"
   id="svg1"
   xml:space="preserve"
   sodipodi:docname="blanc.svg"
   inkscape:version="1.4.2 (ebf0e94, 2025-05-08)"
   inkscape:export-filename="logo_fond.png"
   inkscape:export-xdpi="96"
   inkscape:export-ydpi="96"
   xmlns:inkscape="http://www.inkscape.org/namespaces/inkscape"
   xmlns:sodipodi="http://sodipodi.sourceforge.net/DTD/sodipodi-0.dtd"
   xmlns:xlink="http://www.w3.org/1999/xlink"
   xmlns="http://www.w3.org/2000/svg"
   xmlns:svg="http://www.w3.org/2000/svg"><sodipodi:namedview
     id="namedview1"
     pagecolor="#505050"
     bordercolor="#eeeeee"
     borderopacity="1"
     inkscape:showpageshadow="0"
     inkscape:pageopacity="0"
     inkscape:pagecheckerboard="0"
     inkscape:deskcolor="#505050"
     inkscape:document-units="mm"
     inkscape:zoom="0.18"
     inkscape:cx="2016.6667"
     inkscape:cy="2058.3333"
     inkscape:window-width="1920"
     inkscape:window-height="991"
     inkscape:window-x="-9"
     inkscape:window-y="1341"
     inkscape:window-maximized="1"
     inkscape:current-layer="layer2" /><defs
     id="defs1"><linearGradient
       id="swatch49"
       inkscape:swatch="solid"><stop
         style="stop-color:#f5ff50;stop-opacity:1;"
         offset="0"
         id="stop49" /></linearGradient><linearGradient
       id="linearGradient25"
       inkscape:collect="always"><stop
         style="stop-color:#ffdf50;stop-opacity:1;"
         offset="0"
         id="stop25" /><stop
         style="stop-color:#ffd100;stop-opacity:1;"
         offset="1"
         id="stop26" /></linearGradient><linearGradient
       id="linearGradient44"
       inkscape:collect="always"><stop
         style="stop-color:#ffdf50;stop-opacity:1;"
         offset="0.53629977"
         id="stop44" /><stop
         style="stop-color:#ffd100;stop-opacity:1;"
         offset="1"
         id="stop45" /></linearGradient><clipPath
       clipPathUnits="userSpaceOnUse"
       id="clipPath12"><g
         inkscape:label="Clip"
         id="use12"
         style="fill:url(#linearGradient1);fill-opacity:1;fill-rule:evenodd;stroke:none;stroke-opacity:1" /></clipPath><filter
       style="color-interpolation-filters:sRGB;"
       inkscape:label="Drop Shadow"
       id="filter46"
       x="-0.053402303"
       y="-0.053474968"
       width="1.1646115"
       height="1.1553659"><feFlood
         result="flood"
         in="SourceGraphic"
         flood-opacity="0.498039"
         flood-color="rgb(0,0,0)"
         id="feFlood45" /><feGaussianBlur
         result="blur"
         in="SourceGraphic"
         stdDeviation="5.7347845"
         id="feGaussianBlur45" /><feOffset
         result="offset"
         in="blur"
         dx="3.000000"
         dy="6.000000"
         id="feOffset45" /><feComposite
         result="comp1"
         operator="in"
         in="flood"
         in2="offset"
         id="feComposite45" /><feComposite
         result="fbSourceGraphic"
         operator="over"
         in="SourceGraphic"
         in2="comp1"
         id="feComposite46" /><feColorMatrix
         result="fbSourceGraphicAlpha"
         in="fbSourceGraphic"
         values="0 0 0 -1 0 0 0 0 -1 0 0 0 0 -1 0 0 0 0 1 0"
         id="feColorMatrix46" /><feFlood
         id="feFlood46"
         result="flood"
         in="fbSourceGraphic"
         flood-opacity="0.498039"
         flood-color="rgb(0,0,0)" /><feGaussianBlur
         id="feGaussianBlur46"
         result="blur"
         in="fbSourceGraphic"
         stdDeviation="1.000000" /><feOffset
         id="feOffset46"
         result="offset"
         in="blur"
         dx="6.923077"
         dy="6.000000" /><feComposite
         id="feComposite47"
         result="comp1"
         operator="in"
         in="flood"
         in2="offset" /><feComposite
         id="feComposite48"
         result="fbSourceGraphic"
         operator="over"
         in="fbSourceGraphic"
         in2="comp1" /><feColorMatrix
         result="fbSourceGraphicAlpha"
         in="fbSourceGraphic"
         values="0 0 0 -1 0 0 0 0 -1 0 0 0 0 -1 0 0 0 0 1 0"
         id="feColorMatrix75" /><feFlood
         id="feFlood75"
         result="flood"
         in="fbSourceGraphic"
         flood-opacity="0.168627"
         flood-color="rgb(42,42,42)" /><feGaussianBlur
         id="feGaussianBlur75"
         result="blur"
         in="fbSourceGraphic"
         stdDeviation="8.668731" /><feOffset
         id="feOffset75"
         result="offset"
         in="blur"
         dx="26.307692"
         dy="20.153847" /><feComposite
         id="feComposite75"
         result="comp1"
         operator="in"
         in="flood"
         in2="offset" /><feComposite
         id="feComposite76"
         result="fbSourceGraphic"
         operator="over"
         in="fbSourceGraphic"
         in2="comp1" /><feColorMatrix
         result="fbSourceGraphicAlpha"
         in="fbSourceGraphic"
         values="0 0 0 -1 0 0 0 0 -1 0 0 0 0 -1 0 0 0 0 1 0"
         id="feColorMatrix76" /><feFlood
         id="feFlood76"
         result="flood"
         in="fbSourceGraphic"
         flood-opacity="0.168627"
         flood-color="rgb(42,42,42)" /><feGaussianBlur
         id="feGaussianBlur76"
         result="blur"
         in="fbSourceGraphic"
         stdDeviation="8.668731" /><feOffset
         id="feOffset76"
         result="offset"
         in="blur"
         dx="26.307692"
         dy="20.153847" /><feComposite
         id="feComposite77"
         result="comp1"
         operator="in"
         in="flood"
         in2="offset" /><feComposite
         id="feComposite78"
         result="comp2"
         operator="over"
         in="fbSourceGraphic"
         in2="comp1" /></filter><linearGradient
       inkscape:collect="always"
       xlink:href="#linearGradient44"
       id="linearGradient1"
       gradientUnits="userSpaceOnUse"
       x1="153.45815"
       y1="433.43024"
       x2="925.22028"
       y2="625.85217" /><filter
       style="color-interpolation-filters:sRGB"
       inkscape:label="Drop Shadow"
       id="filter46-2"
       x="-0.32974127"
       y="-0.12724788"
       width="1.9553252"
       height="1.3979143"><feFlood
         result="flood"
         in="SourceGraphic"
         flood-opacity="0.498039"
         flood-color="rgb(0,0,0)"
         id="feFlood45-4" /><feGaussianBlur
         result="blur"
         in="SourceGraphic"
         stdDeviation="10.706 1"
         id="feGaussianBlur45-5" /><feOffset
         result="offset"
         in="blur"
         dx="3.000000"
         dy="6.000000"
         id="feOffset45-5" /><feComposite
         result="comp1"
         operator="in"
         in="flood"
         in2="offset"
         id="feComposite45-1" /><feComposite
         result="fbSourceGraphic"
         operator="over"
         in="SourceGraphic"
         in2="comp1"
         id="feComposite46-7" /><feColorMatrix
         result="fbSourceGraphicAlpha"
         in="fbSourceGraphic"
         values="0 0 0 -1 0 0 0 0 -1 0 0 0 0 -1 0 0 0 0 1 0"
         id="feColorMatrix46-1" /><feFlood
         id="feFlood46-1"
         result="flood"
         in="fbSourceGraphic"
         flood-opacity="0.498039"
         flood-color="rgb(0,0,0)" /><feGaussianBlur
         id="feGaussianBlur46-5"
         result="blur"
         in="fbSourceGraphic"
         stdDeviation="1.000000" /><feOffset
         id="feOffset46-2"
         result="offset"
         in="blur"
         dx="6.923077"
         dy="6.000000" /><feComposite
         id="feComposite47-7"
         result="comp1"
         operator="in"
         in="flood"
         in2="offset" /><feComposite
         id="feComposite48-6"
         result="fbSourceGraphic"
         operator="over"
         in="fbSourceGraphic"
         in2="comp1" /><feColorMatrix
         result="fbSourceGraphicAlpha"
         in="fbSourceGraphic"
         values="0 0 0 -1 0 0 0 0 -1 0 0 0 0 -1 0 0 0 0 1 0"
         id="feColorMatrix75-1" /><feFlood
         id="feFlood75-4"
         result="flood"
         in="fbSourceGraphic"
         flood-opacity="0.168627"
         flood-color="rgb(42,42,42)" /><feGaussianBlur
         id="feGaussianBlur75-2"
         result="blur"
         in="fbSourceGraphic"
         stdDeviation="8.668731" /><feOffset
         id="feOffset75-3"
         result="offset"
         in="blur"
         dx="26.307692"
         dy="20.153847" /><feComposite
         id="feComposite75-2"
         result="comp1"
         operator="in"
         in="flood"
         in2="offset" /><feComposite
         id="feComposite76-2"
         result="fbSourceGraphic"
         operator="over"
         in="fbSourceGraphic"
         in2="comp1" /><feColorMatrix
         result="fbSourceGraphicAlpha"
         in="fbSourceGraphic"
         values="0 0 0 -1 0 0 0 0 -1 0 0 0 0 -1 0 0 0 0 1 0"
         id="feColorMatrix76-1" /><feFlood
         id="feFlood76-6"
         result="flood"
         in="fbSourceGraphic"
         flood-opacity="0.168627"
         flood-color="rgb(42,42,42)" /><feGaussianBlur
         id="feGaussianBlur76-8"
         result="blur"
         in="fbSourceGraphic"
         stdDeviation="8.668731" /><feOffset
         id="feOffset76-5"
         result="offset"
         in="blur"
         dx="26.307692"
         dy="20.153847" /><feComposite
         id="feComposite77-7"
         result="comp1"
         operator="in"
         in="flood"
         in2="offset" /><feComposite
         id="feComposite78-6"
         result="comp2"
         operator="over"
         in="fbSourceGraphic"
         in2="comp1" /></filter><filter
       style="color-interpolation-filters:sRGB;"
       inkscape:label="Drop Shadow"
       id="filter27"
       x="-1.0043104"
       y="-0.70744994"
       width="3.727061"
       height="2.8968631"><feFlood
         result="flood"
         in="SourceGraphic"
         flood-opacity="0.168627"
         flood-color="rgb(42,42,42)"
         id="feFlood26" /><feGaussianBlur
         result="blur"
         in="SourceGraphic"
         stdDeviation="8.668731"
         id="feGaussianBlur26" /><feOffset
         result="offset"
         in="blur"
         dx="26.307692"
         dy="20.153847"
         id="feOffset26" /><feComposite
         result="comp1"
         operator="in"
         in="flood"
         in2="offset"
         id="feComposite26" /><feComposite
         result="comp2"
         operator="over"
         in="SourceGraphic"
         in2="comp1"
         id="feComposite27" /></filter><linearGradient
       inkscape:collect="always"
       xlink:href="#linearGradient25"
       id="linearGradient35"
       gradientUnits="userSpaceOnUse"
       x1="-766.6495"
       y1="683.51118"
       x2="2578.8094"
       y2="683.51118"
       gradientTransform="matrix(0.82689826,-0.43873072,0.43873072,0.82689826,-7.5255986,295.57779)" /><linearGradient
       inkscape:collect="always"
       xlink:href="#linearGradient25"
       id="linearGradient38"
       gradientUnits="userSpaceOnUse"
       x1="-766.6495"
       y1="683.51118"
       x2="2578.8094"
       y2="683.51118"
       gradientTransform="matrix(0.88025091,0.31843947,-0.31843947,0.88025091,330.16103,43.308863)" /><linearGradient
       inkscape:collect="always"
       xlink:href="#linearGradient25"
       id="linearGradient46"
       gradientUnits="userSpaceOnUse"
       gradientTransform="matrix(-0.88360126,0.30902132,-0.30902132,-0.88360126,1026.0756,885.45268)"
       x1="-766.6495"
       y1="683.51118"
       x2="2578.8094"
       y2="683.51118" /><linearGradient
       inkscape:collect="always"
       xlink:href="#linearGradient25"
       id="linearGradient47"
       gradientUnits="userSpaceOnUse"
       gradientTransform="matrix(0.92515713,-0.14258208,0.14258208,0.92515713,-347.97483,692.67491)"
       x1="-766.6495"
       y1="683.51118"
       x2="2578.8094"
       y2="683.51118" /><filter
       style="color-interpolation-filters:sRGB;"
       inkscape:label="Drop Shadow"
       id="filter44"
       x="-0.0022783196"
       y="-0.0041154394"
       width="1.0346573"
       height="1.0273329"><feFlood
         result="flood"
         in="SourceGraphic"
         flood-opacity="0.380392"
         flood-color="rgb(19,19,19)"
         id="feFlood43" /><feGaussianBlur
         result="blur"
         in="SourceGraphic"
         stdDeviation="0.000000"
         id="feGaussianBlur43" /><feOffset
         result="offset"
         in="blur"
         dx="25.384615"
         dy="21.076923"
         id="feOffset43" /><feComposite
         result="comp1"
         operator="in"
         in="flood"
         in2="offset"
         id="feComposite43" /><feComposite
         result="comp2"
         operator="over"
         in="SourceGraphic"
         in2="comp1"
         id="feComposite44" /></filter><filter
       style="color-interpolation-filters:sRGB;"
       inkscape:label="Drop Shadow"
       id="filter28"
       x="-0.044605655"
       y="-0.04015399"
       width="1.1100003"
       height="1.1082709"><feFlood
         result="flood"
         in="SourceGraphic"
         flood-opacity="1.000000"
         flood-color="rgb(19,19,19)"
         id="feFlood25" /><feGaussianBlur
         result="blur"
         in="SourceGraphic"
         stdDeviation="7.430341"
         id="feGaussianBlur25" /><feOffset
         result="offset"
         in="blur"
         dx="8.769231"
         dy="14.923077"
         id="feOffset25" /><feComposite
         result="comp1"
         operator="in"
         in="flood"
         in2="offset"
         id="feComposite25" /><feComposite
         result="fbSourceGraphic"
         operator="over"
         in="SourceGraphic"
         in2="comp1"
         id="feComposite28" /><feColorMatrix
         result="fbSourceGraphicAlpha"
         in="fbSourceGraphic"
         values="0 0 0 -1 0 0 0 0 -1 0 0 0 0 -1 0 0 0 0 1 0"
         id="feColorMatrix28" /><feFlood
         id="feFlood28"
         result="flood"
         in="fbSourceGraphic"
         flood-opacity="1.000000"
         flood-color="rgb(19,19,19)" /><feGaussianBlur
         id="feGaussianBlur28"
         result="blur"
         in="fbSourceGraphic"
         stdDeviation="7.430341" /><feOffset
         id="feOffset28"
         result="offset"
         in="blur"
         dx="8.769231"
         dy="14.923077" /><feComposite
         id="feComposite29"
         result="comp1"
         operator="in"
         in="flood"
         in2="offset" /><feComposite
         id="feComposite30"
         result="comp2"
         operator="over"
         in="fbSourceGraphic"
         in2="comp1" /></filter></defs><g
     inkscape:groupmode="layer"
     id="layer2"
     inkscape:label="Main"
     style="display:inline"><ellipse
       style="display:none;opacity:0.57;fill:#ff1717;fill-opacity:1;fill-rule:evenodd;stroke:none;stroke-width:0.365771;stroke-opacity:0.992032"
       id="path41"
       cx="537.26782"
       cy="545.07294"
       rx="537.63251"
       ry="540.26648" /><ellipse
       style="display:none;opacity:0.57;fill:#17ff19;fill-opacity:1;fill-rule:evenodd;stroke:none;stroke-width:0.206006;stroke-opacity:0.992032"
       id="path41-9"
       cx="523.6322"
       cy="575.44592"
       rx="297.34363"
       ry="309.86768" /><path
       style="display:none;fill:url(#linearGradient35);fill-opacity:1;fill-rule:evenodd;stroke:none;stroke-width:0.24767;stroke-opacity:0.992032"
       d="m 873.96998,509.97862 c 0,0 -0.88716,-14.44698 -2.82504,-21.36395 -1.7248,-6.1564 -7.73066,-17.55341 -7.73066,-17.55341 0,0 43.24138,-6.82263 53.23874,-9.81399 11.57763,-3.46418 23.88669,-4.35982 35.97034,-4.52946 5.53565,-0.0777 12.11456,0.41328 16.53021,1.61175 4.41565,1.19847 9.84391,4.5486 9.84391,4.5486 0,0 18.16169,-11.20659 28.21812,-14.45741 10.7652,-3.47999 22.2389,-5.33239 33.551,-5.13391 8.6835,0.15241 25.6009,4.8422 25.6009,4.8422 0,0 -16.1712,0.75276 -24.0606,2.40168 -9.5225,1.99046 -18.8328,5.13376 -27.77,8.97612 -6.6981,2.87966 -18.40746,6.07453 -19.20096,10.47543 -0.79347,4.4009 14.08336,4.82984 21.00226,7.56995 6.5607,2.59836 13.0134,5.46756 19.4298,8.40435 7.1689,3.28133 14.5625,6.19122 21.2956,10.29329 3.9187,2.38741 11.0076,8.26654 11.0076,8.26654 0,0 -11.9319,-3.20254 -17.8665,-4.91534 -8.2119,-2.37006 -14.6146,-4.90742 -24.5449,-7.41774 -9.9302,-2.51028 -27.22056,-9.11699 -33.7638,-5.96063 -5.33488,2.57342 1.38737,6.418 8.03084,13.77169 6.64356,7.35364 16.32336,18.70605 23.22726,28.92964 3.5187,5.21063 9.9437,16.02841 9.9437,16.02841 0,0 -10.3829,-8.44428 -15.4408,-12.82388 -6.7511,-5.84553 -13.2706,-11.95331 -19.88796,-17.94966 -9.47797,-8.58858 -20.8481,-20.04455 -33.46989,-22.11534 -3.35555,-0.55052 -4.36338,0.91349 -6.23071,3.44981 -1.86742,2.53636 -2.66927,7.37389 -2.3225,12.17231 0.34677,4.7984 5.38199,15.56978 5.38199,15.56978 0,0 -9.75446,-5.02788 -13.18993,-9.12394 -2.83744,-3.38309 -5.23168,-7.63381 -5.52417,-12.03962 -0.33363,-5.0241 2.03734,-10.01078 4.4292,-14.44163 2.22102,-4.11438 8.95426,-10.79673 8.95426,-10.79673 0,0 -12.33251,0.16804 -18.40303,1.12729 -6.45833,1.02051 -12.85885,2.63671 -18.99458,4.89592 -6.92499,2.5498 -13.6108,5.83946 -19.90245,9.69604 -5.48954,3.36492 -10.35644,7.65662 -15.4187,11.63551 -3.70621,2.91305 -9.10855,5.77033 -9.10855,5.77033 z"
       id="path13"
       sodipodi:nodetypes="cacssscsscsszssscszszscsssszcssscssssc" /><path
       style="display:none;fill:url(#linearGradient38);fill-opacity:1;fill-rule:evenodd;stroke:none;stroke-width:0.24767;stroke-opacity:0.992032"
       d="m 800.16774,487.11732 c 0,0 -69.49162,21.9312 -84.26552,29.25018 -10.93482,5.41709 -23.33759,15.22969 -29.33939,21.89605 -6.0018,6.66633 -4.2307,11.31798 -8.79431,14.7946 -11.90656,9.07056 -29.83904,5.33894 -43.3064,11.87127 -9.33403,4.52748 -18.13204,10.74129 -25.04314,18.47815 -3.65034,4.08651 -8.21142,14.24054 -8.21142,14.24054 0,0 11.91441,-11.41449 19.35658,-15.70244 7.4422,-4.28796 16.94411,-7.7946 24.86752,-9.47048 7.92342,-1.67588 16.67142,-7.99543 21.95155,-1.16449 5.28012,6.83093 -11.40728,20.20024 -15.78075,28.27652 -4.37347,8.07631 -7.51946,13.06432 -10.56593,20.11879 -3.04647,7.05447 -7.61457,22.10584 -7.61457,22.10584 0,0 8.57941,-11.6794 12.84586,-17.53608 6.3898,-8.77154 12.60965,-17.66764 19.09963,-26.36532 4.9657,-6.65489 9.11734,-14.83719 15.00163,-14.40705 5.74095,0.41967 1.25629,12.33888 1.98845,20.66705 0.73217,8.32815 1.72675,21.19799 2.33358,29.30649 0.60685,8.10849 1.35495,19.34035 1.35495,19.34035 0,0 3.78316,-11.70517 4.88701,-17.73798 2.31851,-12.67111 2.62727,-27.86364 3.59281,-38.47705 0.96554,-10.61343 -2.39684,-18.15137 2.23204,-25.20044 3.16962,-4.82681 9.53455,-9.22859 15.22725,-8.26026 4.5468,0.7734 9.79839,3.65054 12.13873,7.62473 3.11625,5.29178 3.08668,20.06642 3.08668,20.06642 0,0 5.57723,-8.92473 5.81512,-13.96005 0.29079,-6.15531 -2.05202,-12.5307 -5.4681,-17.65934 -2.33371,-3.50363 -5.87702,-6.31772 -9.69266,-8.09605 -3.19774,-1.49035 -9.63736,1.58304 -10.41976,-1.85709 -1.83624,-8.07379 12.7795,-10.76105 20.16404,-14.50622 7.99908,-4.05691 16.90336,-6.07644 25.58236,-8.33889 7.93904,-2.06952 16.03849,-3.51669 24.14699,-4.76699 9.49766,-1.46451 34.62849,-3.1956 34.62849,-3.1956 0,0 -3.26687,-11.86364 -5.22236,-16.65453 -1.9555,-4.79088 -6.57696,-14.68063 -6.57696,-14.68063 z"
       id="path20"
       sodipodi:nodetypes="cszsssczzzzzcssszscszssscssssssscsc" /><path
       style="display:none;fill:url(#linearGradient46);fill-opacity:1;fill-rule:evenodd;stroke:none;stroke-width:0.24767;stroke-opacity:0.992032"
       d="m 384.20443,832.19178 c 0,0 37.2003,-54.90074 44.03279,-69.90583 5.05704,-11.10592 8.47626,-26.54692 8.91956,-35.50603 0.44333,-8.95907 -3.86761,-11.44714 -2.52491,-17.02483 3.50313,-14.5523 19.76354,-22.98422 26.07982,-36.55426 4.37776,-9.40517 7.27483,-19.77936 7.74709,-30.14272 0.24943,-5.47378 -2.62694,-16.22712 -2.62694,-16.22712 0,0 -2.02891,16.37459 -5.09107,24.39929 -3.06217,8.0247 -8.21475,16.74442 -13.29968,23.0478 -5.08493,6.30339 -7.87654,16.72793 -16.28444,14.7663 -8.40793,-1.96163 -3.9129,-22.86623 -5.62252,-31.89012 -1.70966,-9.02392 -2.4206,-14.87816 -4.51379,-22.27174 -2.09319,-7.39359 -8.057,-21.94845 -8.057,-21.94845 0,0 0.72413,14.47377 1.11496,21.70914 0.58538,10.83636 1.38121,21.66198 1.84226,32.50434 0.35279,8.29586 2.30136,17.26186 -2.53261,20.64456 -4.71621,3.30029 -8.76662,-8.77339 -14.59391,-14.76815 -5.8273,-5.99472 -14.72635,-15.34508 -20.31774,-21.24866 -5.5914,-5.90358 -13.26488,-14.1396 -13.26488,-14.1396 0,0 4.45914,11.46471 7.41328,16.8393 6.20477,11.28864 15.56017,23.26299 21.51442,32.10175 5.95424,8.83878 13.32179,12.55973 14.18466,20.9485 0.59083,5.74416 -1.56421,13.17678 -6.58952,16.0212 -4.01375,2.27187 -9.90255,3.35774 -14.22699,1.75443 -5.75816,-2.13485 -15.0661,-13.60886 -15.0661,-13.60886 0,0 1.31214,10.44195 4.30774,14.49626 3.6619,4.9561 9.50473,8.41959 15.39231,10.2386 4.02212,1.24265 8.54661,1.18676 12.62813,0.15581 3.42056,-0.864 6.47245,-7.31383 9.25168,-5.1407 6.52267,5.10025 -3.11233,16.41431 -6.4726,23.98176 -3.63986,8.19727 -9.26825,15.38656 -14.56857,22.62191 -4.84844,6.61845 -10.21429,12.85568 -15.7115,18.94598 -6.43899,7.1337 -20.19686,20.57277 -20.19686,20.57277 0,0 7.54109,6.14247 12.08294,8.62203 4.54184,2.47957 15.04999,6.00534 15.04999,6.00534 z"
       id="path20-9"
       sodipodi:nodetypes="cszsssczzzzzcssszscszssscsssssssczc" /><path
       style="display:none;fill:url(#linearGradient47);fill-opacity:1;fill-rule:evenodd;stroke:none;stroke-width:0.24767;stroke-opacity:0.992032"
       d="m 273.39793,862.17762 c 0,0 -46.59454,47.19007 -56.0506,60.69631 -6.99885,9.99656 -13.17851,24.55429 -15.24934,33.28204 -2.07083,8.72773 1.71366,11.96072 -0.62437,17.19972 -6.09997,13.66863 -23.6261,18.99158 -32.31273,31.18111 -6.02057,8.4484 -10.76224,18.1196 -13.11779,28.2228 -1.24416,5.3363 -0.37849,16.434 -0.37849,16.434 0,0 4.98307,-15.7294 9.45824,-23.0605 4.4752,-7.3311 11.13254,-14.9641 17.28238,-20.2337 6.14986,-5.2696 10.79694,-15.00968 18.70571,-11.5466 7.90876,3.46307 -0.32571,23.1964 -0.29157,32.3807 0.0341,9.1844 -0.33521,15.07 0.37357,22.7215 0.70878,7.6514 3.91628,23.0502 3.91628,23.0502 0,0 1.92936,-14.3629 2.86553,-21.548 1.40197,-10.7613 2.5951,-21.5503 4.12043,-32.2948 1.16708,-8.2209 0.88744,-17.392 6.25754,-19.83571 5.2393,-2.3842 7.01835,10.22591 11.65377,17.18341 4.63548,6.9576 11.6787,17.7749 16.09884,24.5997 4.42016,6.8248 10.46179,16.3229 10.46179,16.3229 0,0 -2.29205,-12.0859 -4.21576,-17.9094 -4.04049,-12.2314 -11.05355,-25.7119 -15.29482,-35.4889 -4.24127,-9.77695 -10.80605,-14.77994 -10.12355,-23.1853 0.46736,-5.75553 3.94261,-12.67006 9.40261,-14.54964 4.36094,-1.50124 10.34902,-1.49422 14.30825,0.87134 5.27187,3.14983 12.3296,16.12979 12.3296,16.12979 0,0 0.61546,-10.50607 -1.58995,-15.03898 -2.69597,-5.54113 -7.80862,-10.01272 -13.26539,-12.87563 -3.7278,-1.95579 -8.18652,-2.72651 -12.38763,-2.45772 -3.52078,0.22527 -7.69847,6.00985 -10.03444,3.36601 -5.4824,-6.20493 6.05553,-15.57068 10.74037,-22.39784 5.07467,-7.39537 11.92054,-13.43679 18.45224,-19.58339 5.97483,-5.6225 12.38883,-10.77577 18.90515,-15.7606 7.6327,-5.83885 23.61205,-16.54155 23.61205,-16.54155 0,0 -6.2935,-7.4155 -10.30658,-10.68228 -4.01306,-3.26677 -13.70134,-8.65099 -13.70134,-8.65099 z"
       id="path20-6"
       sodipodi:nodetypes="cszsssczzzzzcssszscszssscsssssssczc" /><g
       id="g1"
       style="fill:#ffffff;stroke:none;stroke-opacity:1;stroke-width:3.8;stroke-dasharray:none;fill-opacity:1"><path
         id="path3"
         style="display:inline;fill:#ffffff;fill-opacity:1;fill-rule:evenodd;stroke:none;stroke-width:3.8;stroke-dasharray:none;stroke-opacity:1"
         d="m 605.74346,98.105535 c -8.47368,-0.403411 -20.60423,0.870376 -28.71756,3.808355 -10.81777,3.9173 -16.33826,9.55899 -28.06524,18.29239 -12.76427,9.50596 -29.39403,21.18702 -42.53195,33.74742 -5.14039,4.91442 -12.54363,10.74409 -19.77563,16.10218 -1.25826,0.93223 92.9329,90.11047 91.69783,91.00685 -2.42549,1.76034 -126.21033,-67.15334 -128.39985,-65.61476 -19.08376,13.41015 -23.12606,5.02424 -28.92644,14.03631 -23.4241,36.39408 -2.93746,86.11465 -3.21128,129.80234 14.01521,-39.20701 12.78944,-42.05793 56.31967,-60.28458 43.53022,-18.22666 141.33922,-14.72385 200.58362,5.28094 26.1179,8.81911 76.10108,42.68525 93.38542,54.4546 17.28434,11.76936 13.6342,10.75093 13.6342,10.75093 l 79.78472,5.66958 -54.52153,21.19596 c 0,0 2.55524,1.96986 9.98458,11.05801 37.16533,45.46355 63.04726,107.40254 73.70971,159.23802 10.66244,51.83547 6.22304,98.74298 -3.05271,142.04935 -9.27575,43.30637 -22.06307,75.37725 -48.21,113.86391 -26.14693,38.48665 -58.54465,80.86426 -110.8008,109.13201 -52.25614,28.26776 -138.7645,45.71641 -196.95089,42.66036 -28.1299,-1.47743 -51.9182,-5.99219 -73.82971,-13.33876 -23.41223,-7.84974 -44.68179,-18.93247 -66.81542,-32.99749 -27.5835,-17.52817 -58.73481,-51.01268 -58.73481,-51.01268 l -25.885,67.82345 -11.03928,-101.97419 c 0,0 -20.05072,-23.02164 -28.24163,-33.55436 -30.72044,-39.50356 -50.27726,-83.01271 -63.39039,-111.96023 -13.11313,-28.94753 -11.71738,-49.37597 -11.71738,-49.37597 0,0 -5.98254,19.66237 -4.77425,46.66722 1.20829,27.00486 10.35388,89.28535 27.01148,129.23913 16.65758,39.95379 51.43102,83.14287 72.45487,106.52982 21.02386,23.38693 39.67964,40.90846 68.54825,59.81119 28.8686,18.90272 64.40948,37.68446 103.2435,48.99496 38.834,11.3104 92.27382,16.035 123.00934,15.5897 30.73553,-0.4453 25.93433,-3.0966 25.93433,-3.0966 l -34.3973,-72.90624 95.61724,62.01934 c 0,0 77.96751,-29.47755 111.08151,-50.80212 33.114,-21.32457 86.18558,-74.87891 86.18558,-74.87891 l 10.26927,-152.45285 29.46171,94.0554 c 0,0 48.61019,-116.3606 54.02569,-171.50235 5.4155,-55.14175 -2.573,-102.38915 -16.6617,-151.71956 -14.08871,-49.3304 -41.62645,-103.67308 -67.08141,-139.9377 -25.45495,-36.26461 -44.65757,-54.64117 -77.58668,-78.89689 -32.9291,-24.25573 -87.85146,-50.7629 -119.75876,-61.73625 -31.90729,-10.97335 -56.26041,7.53854 -66.53977,-12.55626 -9.94703,-19.44513 23.96535,-47.76093 27.82701,-59.32253 3.86164,-11.56161 0.0945,-15.38535 27.40245,-35.2823 8.67378,-6.31983 32.74471,-12.46538 36.58306,-9.79362 3.83834,2.67176 3.98903,7.6594 3.98903,7.6594 0,0 3.14764,-7.85188 -3.90303,-9.99739 -7.05056,-2.14553 -19.75237,0.5098 -26.83157,1.76302 -11.97818,2.12053 -23.79037,5.54853 -34.72015,11.34708 -10.92989,5.79856 -20.34156,12.54135 -31.634,18.58566 -5.12062,2.7408 -14.5241,10.03841 -17.93852,7.04286 -4.62021,-4.0535 24.21765,-32.52088 35.78121,-39.42156 11.56346,-6.90067 20.74158,-5.92955 26.97704,-5.93909 6.23548,-0.0101 6.5008,5.39529 6.5008,5.39529 0,0 3.47466,-6.24688 -2.59951,-8.56747 -6.07405,-2.3206 -20.19659,0.12822 -29.43166,2.65551 -9.23517,2.5273 -17.30546,7.014 -25.07547,11.44465 -11.38272,6.49074 -22.43742,13.59488 -33.17708,21.12916 -10.4914,7.36021 -26.16412,27.01917 -30.47654,23.47698 -5.29716,-4.35105 18.68128,-31.30004 26.42574,-40.49761 7.74455,-9.19757 10.50278,-12.74048 17.45129,-16.21994 6.94842,-3.47946 17.00762,-4.60997 22.47423,-4.04041 5.46661,0.56955 9.42358,3.81931 9.42358,3.81931 0,0 2.50853,-4.52427 -4.40236,-6.555057 -1.7277,-0.507694 -4.14615,-0.82844 -6.9707,-0.962918 z"
         sodipodi:nodetypes="sssssssaczszcccszzzsssscccsscszsczzccczccczzzzzazsscssssssccsssssssscss" /><path
         style="display:inline;fill:#ffffff;fill-opacity:1;fill-rule:evenodd;stroke:none;stroke-width:3.8;stroke-dasharray:none;stroke-opacity:1"
         d="m 211.6988,502.62565 c 0,0 -34.76533,128.99154 19.4767,143.2482 13.95772,3.66856 18.27473,-17.93348 28.76019,-25.71528 6.20418,-4.60444 12.537,-9.39794 20.04714,-12.29188 2.19031,-0.84401 7.03388,-1.37847 7.03388,-1.37847 0,0 -10.71804,13.55349 -14.57699,20.97968 -5.3424,10.28095 -9.81445,21.09493 -11.65376,32.2176 -2.2722,13.74057 -1.25893,27.86597 0.9332,41.61585 1.333,8.36106 3.83487,16.6422 7.3776,24.5284 3.09718,6.89429 12.01249,19.65374 12.01249,19.65374 0,0 -11.82823,-5.88866 -16.80431,-9.81931 -7.06099,-5.57753 -12.64046,-12.40995 -18.06608,-19.1725 -6.28155,-7.82939 -11.48822,-16.25159 -16.66231,-24.64111 -6.26023,-10.15066 -12.32668,-20.42082 -17.37313,-31.04453 -5.14866,-10.83881 -9.65558,-21.93272 -13.11134,-33.2425 -2.05953,-6.74024 -4.51369,-20.53349 -4.51369,-20.53349 0,0 -9.41604,13.96115 -12.20175,21.57868 -3.72692,10.19132 -4.71941,20.56206 -5.79863,31.62609 -1.07925,11.06402 -1.78914,22.61609 -0.44103,34.60344 1.3481,11.98734 5.77605,28.08671 8.86146,36.88907 3.08543,8.80235 0.18376,26.07755 0.18376,26.07755 0,0 -12.61171,-22.36956 -19.16188,-27.97217 -6.55018,-5.60257 -8.65933,-8.45673 -13.48441,-14.46334 -4.82506,-6.00662 -10.73006,-14.15805 -14.92674,-21.75395 -2.80183,-5.07123 -6.77931,-15.78417 -6.77931,-15.78417 0,0 4.27099,4.70448 7.16723,6.26869 2.84669,1.5373 6.20604,2.56522 9.57037,2.81209 2.8085,0.20604 8.34746,-1.14872 8.34746,-1.14872 0,0 -2.67668,-3.01387 -4.98444,-5.65402 -2.30779,-2.64013 -6.26442,-6.591 -8.84055,-10.20027 -4.56768,-6.39946 -9.03867,-13.00795 -11.6216,-20.15752 -2.5245,-6.98801 -3.28699,-14.40648 -3.60147,-21.70891 -0.30454,-7.07187 1.67021,-21.18259 1.67021,-21.18259 0,0 6.3258,9.04642 9.19298,13.03979 2.66874,3.88315 4.70535,7.06954 7.99054,10.92965 8.6438,10.15643 65.38584,-127.64808 65.38584,-127.64808"
         id="path10"
         sodipodi:nodetypes="csascsssscssssscszzzczzscaaczsssccsc" /><path
         id="path18"
         style="display:inline;fill:#ffffff;fill-opacity:1;fill-rule:evenodd;stroke:none;stroke-width:3.8;stroke-opacity:1;stroke-dasharray:none"
         d="M 816.57393 235.02028 C 801.94379 234.09447 778.67749 250.84119 771.55446 256.26601 C 770.35808 256.17237 769.66982 256.12649 769.66982 256.12649 L 747.76521 254.70952 C 747.76521 254.70952 765.17464 263.91807 788.70741 276.89576 C 812.24023 289.87346 855.73438 331.27112 878.02703 357.23298 C 900.31968 383.19483 923.59996 433.96783 923.59996 433.96783 C 923.59996 433.96783 926.55318 426.78639 928.23947 420.93503 C 929.48054 421.94881 930.96804 422.80671 932.74462 423.4341 C 942.50538 426.88111 946.98239 437.26025 950.38488 446.02704 C 953.07509 452.95859 950.9094 474.7736 950.9094 474.7736 C 950.9094 474.7736 966.227 439.96254 959.50629 425.11255 C 955.01188 415.18169 934.23662 406.24033 926.30728 403.13147 C 922.07016 391.88955 913.60011 375.2886 901.7801 356.95289 C 901.96914 356.94206 902.16132 356.92393 902.35629 356.89863 C 908.98284 356.03869 917.53163 362.35327 924.29552 368.56717 C 929.64338 373.48025 941.46656 393.11244 941.46656 393.11244 C 941.46656 393.11244 930.72924 356.88703 916.27792 346.98295 C 910.56479 343.06751 897.31468 343.3612 892.7667 343.59091 C 887.16342 335.64452 881.00829 327.54535 874.36678 319.55982 C 869.75317 314.01258 865.1395 308.34412 860.34904 302.79237 C 861.79671 302.77999 863.20603 302.4321 864.48418 301.60381 C 869.70972 298.21748 875.9686 304.93738 883.99255 308.45972 C 890.33676 311.24464 907.6893 326.0323 907.6893 326.0323 C 907.6893 326.0323 886.0734 294.65014 869.08804 290.29184 C 864.49428 289.11312 857.02516 291.5483 852.04412 293.55314 C 838.99899 279.7351 824.11207 267.59639 804.34419 261.25382 C 802.96266 260.81056 801.38711 260.39798 799.68762 260.01565 C 809.14861 252.41158 823.68502 253.55253 835.75312 254.88263 C 845.30448 255.93533 869.41825 269.54014 869.41825 269.54014 C 869.41825 269.54014 837.57192 236.34903 816.57393 235.02028 z " /><path
         style="fill:#ffffff;fill-opacity:1;fill-rule:evenodd;stroke:none;stroke-width:3.8;stroke-opacity:1;stroke-dasharray:none"
         d="m 756.26544,817.38327 c 0,0 -0.34806,35.41337 -16.12916,40.32497 -2.7608,0.85925 -5.9619,-6.30058 -5.9619,-6.30058 0,0 -16.87824,51.9015 -35.47612,46.26426 -3.63021,-1.10038 -0.74545,-11.35551 -0.74545,-11.35551 0,0 -29.75114,40.62986 -45.68502,31.30696 -3.01949,-1.76669 0.93032,-10.45375 0.93032,-10.45375 0,0 -42.05928,28.54597 -53.43232,14.06004 -2.07347,-2.641 4.80196,-8.85486 4.80196,-8.85486 l -63.21459,34.34352 c 14.95443,1.78576 32.96822,-0.63894 58.66276,-4.73631 16.50508,-2.63197 61.44377,-12.1646 76.78333,-16.685 15.33955,-4.52039 41.98372,-17.08624 62.49143,-29.83078 20.5077,-12.74456 43.63041,-36.62264 43.63041,-36.62264 0,0 -12.40695,-26.07749 -26.65561,-41.46033 z"
         id="path14"
         sodipodi:nodetypes="cscscscsccsszccc" /><path
         style="fill:#ffffff;fill-opacity:1;fill-rule:evenodd;stroke:none;stroke-width:3.8;stroke-dasharray:none;stroke-opacity:1"
         d="m 181.87956,450.99205 45.62207,-30.13893 -2.35495,17.47085 32.47378,-47.73075 34.3008,-24.5391 -25.67081,4.42133 35.95996,-37.20605 -16.63302,0.3837 21.58508,-12.35345 -4.6679,-109.83216 40.1241,106.83191 1.41491,8.4824 13.41162,9.99971 c 0,0 9.38294,22.4188 16.31886,32.28135 4.72737,6.72207 9.40209,14.64504 16.94454,17.90777 4.23563,1.83226 9.45527,1.47356 13.84479,0.0488 6.7402,-2.18777 17.16243,-12.54596 17.16243,-12.54596 0,0 -10.39275,4.04818 -15.64768,3.19599 -5.13042,-0.832 -9.4867,-4.49543 -13.50788,-7.78839 -4.94557,-4.04995 -9.31258,-8.95647 -12.66629,-14.3983 -1.16931,-1.89735 -3.65415,-4.29518 -2.49942,-6.20146 2.70299,-4.4622 10.50205,-0.32177 15.57545,-1.53748 6.66584,-1.59731 19.15718,-7.47425 19.15718,-7.47425 0,0 -20.54561,2.08054 -29.25181,-2.38109 -3.13612,-1.60715 -4.92561,-5.10029 -6.84989,-8.05245 -1.48716,-2.2815 -2.87448,-4.71875 -3.55696,-7.35523 -0.46454,-1.79457 -1.40769,-4.057 -0.31217,-5.55234 4.89679,-6.68416 24.08448,-6.15202 24.08448,-6.15202 0,0 -13.40479,-2.3214 -18.55555,-6.3465 -5.52473,-4.31733 -13.41101,-10.9453 -11.41625,-17.66711 0.93871,-3.1632 5.98361,-2.78902 9.03781,-4.03759 8.3398,-3.40944 25.33454,-9.42085 25.33454,-9.42085 0,0 -30.68381,-0.9632 -33.24129,-12.52453 -4.71133,-21.29798 45.7912,-46.7479 45.7912,-46.7479 0,0 -32.81393,9.95832 -36.48706,4.78126 -4.48578,-6.32234 20.64817,-22.64095 20.64817,-22.64095 0,0 -25.31148,8.90492 -26.58426,6.32013 -3.71641,-7.54731 13.72255,-11.48076 21.21273,-16.52372 26.66705,-17.95437 56.34764,-32.45636 79.64648,-54.69007 15.25028,-14.5531 30.27661,-30.86598 38.19598,-50.401759 10.6347,-26.234087 4.33941,-35.703033 4.33941,-35.703033 0,0 -15.54222,39.115867 -31.73813,50.786283 -10.07756,7.261659 -25.09871,16.210709 -36.2261,8.733249 -3.39339,-2.28032 5.98684,-35.741385 5.98684,-35.741385 0,0 -27.25275,39.059855 -42.37863,57.420095 -14.401,17.48036 -31.6386,37.61097 -45.93559,50.06485 -33.42095,29.1124 -36.81884,24.51526 -38.25452,19.93597 -1.02696,-3.27558 56.33403,-104.446023 56.33403,-104.446023 0,0 -63.01003,70.655033 -67.49692,68.235043 -4.55478,-2.4566 1.44354,-26.80019 1.44354,-26.80019 0,0 -24.74176,41.99601 -32.72818,58.39405 -7.98641,16.39804 -14.40925,31.29975 -18.62972,33.52943 -1.35525,0.71597 -9.08189,-19.87154 8.6918,-53.34772 0,0 -16.67829,23.87804 -22.00684,34.76709 -5.32857,10.88909 -10.70963,29.72011 -10.70963,29.72011 -2.26082,-5.36738 -2.57098,-17.2821 -2.57098,-17.2821 -6.82053,-0.0168 -17.69129,8.46114 -16.32214,31.41436 0,0 4.99471,12.54829 0.9606,16.10425 -3.91362,3.44979 -10.16617,-2.8293 -15.38293,-2.88513 -3.5812,-0.0383 -7.48074,-0.006 -10.60004,1.75408 -4.692,2.64684 -8.39034,7.32697 -10.50441,12.28193 -1.30493,3.05848 -1.02365,6.60183 -0.98599,9.92686 0.0508,4.48759 2.91852,9.06409 1.63377,13.36413 -2.07011,6.92869 -7.93902,12.63744 -14.01392,16.56017 -13.23013,8.5431 -33.64053,2.53419 -45.42891,12.97716 -5.15493,4.56659 -7.30196,12.18795 -8.02905,19.03618 -1.02028,9.60989 -0.92166,21.17942 5.40664,28.48307 7.68204,8.86601 33.28945,11.41888 33.28945,11.41888 l -17.16047,-25.67146 24.6848,5.50554 -9.63742,-20.35907 49.22653,-11.15022 29.63818,-31.94245 12.21102,-13.31539 1.36907,19.44528 -18.07756,46.29262 -13.19702,23.24225 -24.25296,10.02179 -21.05498,-12.54792 5.59919,24.06042 8.62801,18.09964 z"
         id="path22"
         sodipodi:nodetypes="cccccccccccccssscssssscsssscssscscscsssscascszscsczsczscsssaassssssccccccccccccccc" /><path
         style="fill:#ffffff;fill-opacity:1;fill-rule:evenodd;stroke:none;stroke-width:3.8;stroke-dasharray:none;stroke-opacity:1"
         d="m 171.19956,286.46342 7.63307,-29.07984 14.8301,-9.56413 18.13058,6.02259 3.62357,-24.63582 -12.39867,8.24387 -1.65811,-15.34517 -13.92861,18.64562 -11.14221,-11.70638 -0.48366,22.30113 -7.56774,-5.58755 -1.96499,20.9646 z"
         id="path23" /><path
         id="text1"
         style="font-size:594.907px;font-family:Nunito;-inkscape-font-specification:'Nunito, Normal';text-align:start;writing-mode:lr-tb;direction:ltr;text-anchor:start;display:inline;fill:#ffffff;fill-opacity:1;fill-rule:evenodd;stroke:none;stroke-width:3.8;stroke-dasharray:none;stroke-opacity:1;paint-order:markers fill stroke"
         d="m 543.71185,378.24255 c 0,0 -24.64056,4.5809 -36.72224,7.85603 -21.48384,5.82389 -47.00401,11.39864 -63.41528,20.92272 -30.92228,18.16633 -54.53417,43.70197 -70.83597,76.60705 -16.3109,32.50857 -23.96524,70.57029 -22.96223,114.18528 1.00302,43.61497 10.40351,81.48273 28.2007,113.60363 17.78808,31.7244 42.54888,56.14761 74.28268,73.26975 32.12121,16.71653 123.42095,25.67096 123.42095,25.67096 L 556.0378,765.3954 571.30056,724.93227 c 0,0 -65.3111,-10.30949 -83.66422,-32.10316 -18.35312,-21.79366 -28.02679,-54.29999 -29.0207,-97.51846 -0.99389,-43.21848 7.17983,-75.93648 24.52081,-98.15429 31.15042,-40.64453 50.10023,-33.64388 50.10023,-33.64388 l 28.87018,-36.37514 z"
         sodipodi:nodetypes="caccscccccsscccc" /><path
         id="path1"
         style="font-size:594.907px;font-family:Nunito;-inkscape-font-specification:'Nunito, Normal';text-align:start;writing-mode:lr-tb;direction:ltr;text-anchor:start;display:inline;fill:#ffffff;fill-opacity:1;fill-rule:evenodd;stroke:none;stroke-width:3.8;stroke-dasharray:none;stroke-opacity:1;paint-order:markers fill stroke"
         d="m 575.11768,378.12281 23.29532,51.07583 -33.09584,37.6068 c 0,0 65.02538,6.86584 82.84493,28.02591 18.74961,21.78454 28.61685,54.08764 29.60164,96.90963 0.98477,42.82197 -7.18437,75.73862 -24.50712,98.74944 -16.37248,21.36252 -23.07822,34.46766 -52.29003,36.30111 l -12.8199,39.64263 16.60918,43.77393 c 39.89332,-1.70612 57.41805,-12.25114 86.87358,-29.55578 31.30966,-18.57196 55.1197,-44.11216 71.4306,-76.62073 16.3018,-32.90508 23.95106,-71.16492 22.94805,-114.7799 -1.00302,-43.61499 -10.39844,-81.28461 -28.18651,-113.00901 -17.4007,-32.13002 -42.16149,-56.55324 -74.2827,-73.26976 -31.24995,-16.47536 -108.4212,-24.8501 -108.4212,-24.8501 z"
         sodipodi:nodetypes="ccccsccccccsccc" /></g></g></svg>
